<?xml version="1.0" encoding="UTF-8" standalone="no"?>
<!-- Created with Inkscape (http://www.inkscape.org/) -->

<svg
   version="1.1"
   id="svg2"
   width="1333.3333"
   height="1333.3333"
   viewBox="0 0 1333.3333 1333.3333"
   sodipodi:docname="marlboro-cowboy-seeklogo.ai"
   xmlns:inkscape="http://www.inkscape.org/namespaces/inkscape"
   xmlns:sodipodi="http://sodipodi.sourceforge.net/DTD/sodipodi-0.dtd"
   xmlns="http://www.w3.org/2000/svg"
   xmlns:svg="http://www.w3.org/2000/svg">
  <defs
     id="defs6">
    <clipPath
       clipPathUnits="userSpaceOnUse"
       id="clipPath18">
      <path
         d="M 0,1000 H 1000 V 0 H 0 Z"
         id="path16" />
    </clipPath>
  </defs>
  <sodipodi:namedview
     id="namedview4"
     pagecolor="#ffffff"
     bordercolor="#000000"
     borderopacity="0.25"
     inkscape:showpageshadow="2"
     inkscape:pageopacity="0.0"
     inkscape:pagecheckerboard="0"
     inkscape:deskcolor="#d1d1d1" />
  <g
     id="g8"
     inkscape:groupmode="layer"
     inkscape:label="marlboro-cowboy-seeklogo"
     transform="matrix(1.3333333,0,0,-1.3333333,0,1333.3333)">
    <path
       d="M 0.001,0.057 H 999.943 V 1000 H 10e-4 Z"
       style="fill:#ff0000;fill-opacity:1;fill-rule:nonzero;stroke:none"
       id="path10" />
    <g
       id="g12">
      <g
         id="g14"
         clip-path="url(#clipPath18)">
        <g
           id="g20"
           transform="translate(781.7061,575.751)">
          <path
             d="m 0,0 c 0,0 21.898,16.189 38.09,12.856 0,0 13.332,1.429 26.188,-20.952 0,0 29.046,7.143 33.808,-19.522 0,0 22.857,5.713 26.19,-2.381 0,0 4.76,-4.286 6.666,-9.523 0,0 3.332,-3.333 7.618,-3.333 0,0 7.142,1.904 13.808,-7.619 0,0 10.957,-11.425 9.527,-29.997 0,0 -14.289,-24.82 -18.574,-25.03 l -15.714,-7.352 -5.237,-6.666 -5.714,-14.76 -4.285,-15.713 -28.093,-12.857 -59.522,-1.905 L 5.233,-138.563 0,-112.375 2.853,-86.187 0,-54.76 v 28.094 z"
             style="fill:#ffffff;fill-opacity:1;fill-rule:nonzero;stroke:none"
             id="path22" />
        </g>
        <g
           id="g24"
           transform="translate(248.7578,451.3242)">
          <path
             d="m 0,0 c 0,0 25.396,22.287 29.642,25.86 l 12.381,74.282 7.143,52.855 11.428,28.569 28.517,16.666 64.335,-3.333 52.377,-19.047 47.141,-28.092 43.807,-24.285 10,-30.951 19.045,-46.665 9.048,-37.616 5.714,-23.332 4.285,-19.046 3.333,-15.713 v -14.286 -11.429 l 67.14,-67.615 -4.761,-18.093 -42.379,-14.761 -122.851,3.333 -116.184,10.474 -74.757,51.427 -34.761,53.33 -15.713,32.857 z"
             style="fill:#ffffff;fill-opacity:1;fill-rule:nonzero;stroke:none"
             id="path26" />
        </g>
        <g
           id="g28"
           transform="translate(346.4912,791.4536)">
          <path
             d="m 0,0 c 0,0 8.095,7.142 10.952,13.809 l 4.286,13.809 c 0,0 6.665,17.142 21.903,26.665 0,0 18.094,10.951 53.33,14.761 0,0 101.899,-0.476 111.899,2.857 0,0 57.141,4.286 78.805,-2.857 0,0 17.857,-0.153 41.187,-32.456 0,0 34.284,-12.303 33.809,-53.254 0,0 3.332,-7.618 -6.666,-82.852 0,0 -0.477,-39.045 -2.858,-47.141 0,0 25.713,-25.236 37.141,-48.568 0,0 1.429,-3.81 5.714,-6.19 0,0 12.381,-6.19 19.522,-6.667 0,0 18.572,-3.333 26.191,-7.619 0,0 9.522,-2.38 10.95,-5.713 0,0 1.904,-7.619 8.096,0 0,0 -6.666,-7.619 3.808,-25.237 0,0 15.714,-9.524 24.761,-9.524 0,0 16.19,-0.475 17.142,21.428 0,0 4.286,-20.475 -18.093,-32.379 0,0 2.856,-6.19 0.475,-18.571 l -7.141,-17.617 c 0,0 -2.382,-8.095 3.331,-14.285 0,0 9.047,-5.714 18.571,-9.047 0,0 10,-3.334 13.333,2.856 0,0 2.381,5.239 -6.666,6.667 0,0 27.617,7.143 30.474,68.091 0,0 2.38,-29.046 0,-37.616 0,0 -1.904,-6.667 -1.429,-10.476 0,0 0,-10.365 -13.807,-30.418 0,0 -1.906,-11.008 -1.43,-15.77 0,0 5.714,-4.763 11.429,-4.049 0,0 14.285,0.24 16.188,5.953 0,0 -4.761,3.333 -7.142,1.905 0,0 19.999,10e-4 30.951,74.758 0,0 -2.857,-30.475 -8.095,-53.331 0,0 23.808,-3.333 36.188,21.905 0,0 5.238,-16.191 -25.713,-38.57 0,0 -12.857,-4.908 -12.378,-12.691 l 0.475,-8.26 c 0,0 0.952,-7.617 -7.142,-19.046 0,0 -12.382,-16.191 -20.952,-35.237 0,0 -2.38,-6.666 -11.904,-18.093 0,0 0,-20.475 -0.953,-23.808 0,0 1.904,-6.191 6.19,-9.524 0,0 3.333,-3.808 -16.19,-6.666 l -18.57,1.903 c 0,0 -6.189,3.335 -6.189,-7.141 0,0 -7.143,-26.666 -26.189,-36.19 0,0 -14.762,-9.999 -30.95,-19.521 0,0 -12.858,-10.953 -25.237,-25.236 0,0 -1.428,-2.382 -17.619,-10.954 0,0 -9.523,-6.188 -11.428,-13.807 0,0 -3.333,-12.381 -24.284,-24.761 0,0 -11.428,-3.333 -26.189,0 l -9.999,8.094 -1.906,0.477 c 0,0 -19.522,-25.712 -25.236,-30.95 0,0 -4.642,-2.978 -5.356,-13.691 0,0 -1.072,-19.641 -0.357,-27.856 0,0 0,-5.357 -2.857,-26.785 0,0 -1.429,-10.712 -0.358,-27.855 0,0 1.073,-17.855 2.143,-28.57 0,0 -2.5,-21.427 -2.143,-28.569 v -12.499 h -621.75 v 327.482 c 0,0 -5.476,21.188 17.856,29.759 0,0 31.903,19.998 84.757,37.616 0,0 34.76,12.381 62.378,14.762 0,0 16.19,6.191 24.76,8.096 0,0 21.428,3.536 32.379,14.863 0,0 8.096,7.516 17.619,17.516 0,0 4.761,7.618 10.951,-0.953 0,0 51.426,-52.378 60.473,-64.758 0,0 27.618,-34.76 79.995,-67.615 l 13.809,32.378 c 0,0 3.809,3.333 -2.857,17.142 l -13.333,36.19 c 0,0 -1.428,13.332 0,14.283 0,0 3.81,0 5.238,-2.855 0,0 20.475,-39.998 57.14,-67.139 0,0 37.141,-26.666 69.043,-36.665 0,0 9.524,-5.715 17.619,1.903 0,0 5.713,4.763 7.618,8.571 0,0 6.667,5.238 -5.714,7.144 0,0 0.952,8.569 8.571,9.048 0,0 7.618,3.808 8.095,5.711 0,0 0,6.668 -16.666,7.621 0,0 -7.142,0 -10.951,2.856 0,0 0.475,3.333 5.237,8.571 0,0 5.715,8.57 17.618,2.858 0,0 9.525,-5.239 12.38,-1.43 0,0 10.952,16.19 -4.762,22.857 0,0 -5.714,6.188 -26.664,-4.762 0,0 -4.286,-2.858 -10,-2.382 0,0 -0.952,4.287 4.762,10.953 0,0 9.999,5.236 17.618,5.715 0,0 3.333,-0.954 8.571,-2.382 l 32.379,-1.905 c 0,0 6.19,0 8.094,3.333 0,0 -10.475,15.237 -15.236,28.094 0,0 -6.667,15.44 -18.095,10.102 0,0 -6.189,-0.58 -4.762,5.135 l 8.095,15.237 c 0,0 6.19,2.381 -4.285,23.808 0,0 -1.906,7.618 -7.144,21.902 0,0 -2.857,5.715 -10.475,14.285 0,0 -4.285,6.192 -9.047,16.666 0,0 -9.047,23.808 -45.712,40.951 0,0 -38.093,21.427 -49.521,-18.095 0,0 -23.809,5.715 -30.475,8.096 0,0 -3.809,25.236 -14.76,32.855 0,0 -5.238,-2.381 -6.191,-7.143 0,0 -7.142,-6.19 -12.856,5.239 0,0 0.952,12.38 -9.523,5.714 0,0 -10.952,-4.287 -18.571,-11.905 0,0 -3.333,17.618 10,27.141 0,0 10.952,8.096 24.284,-3.809 0,0 7.619,-6.667 12.38,-1.905 0,0 5.714,5.238 -5.714,14.286 0,0 -19.046,18.57 -41.903,-7.143 0,0 -10.475,-12.38 -11.427,-27.618 0,0 -5.714,-6.666 -3.333,-38.569 0,0 0.476,-6.189 -2.857,-7.142 0,0 -4.286,-3.809 -6.667,-9.047 0,0 -16.189,-32.855 -42.378,-53.807 0,0 -3.81,25.237 -0.476,51.425 0,0 0.003,4.762 -7.379,7.143 0,0 -42.143,7.619 -69.76,21.904 0,0 -42.855,22.38 -43.808,68.091 0,0 -4.285,54.997 57.14,115.232 0,0 29.522,29.045 65.234,39.997 0,0 31.431,12.859 67.141,10.477"
             style="fill:#000000;fill-opacity:1;fill-rule:nonzero;stroke:none"
             id="path30" />
        </g>
        <g
           id="g32"
           transform="translate(599.333,379.0947)">
          <path
             d="m 0,0 c 0,0 12.38,0.476 13.808,5.238 0,0 6.191,8.094 8.571,9.524 0,0 44.282,17.14 58.093,17.14 0,0 9.999,4.763 18.57,-1.905 0,0 7.142,-5.236 10.951,-2.379 0,0 8.095,2.381 0,11.904 0,0 29.998,13.808 34.284,15.713 l 2.38,-5.714 c 0,0 5.715,2.379 14.286,13.332 0,0 3.809,2.381 0,6.191 0,0 -5.714,5.714 -2.381,34.759 0,0 2.381,5.715 6.666,3.333 0,0 3.808,-0.476 3.808,4.762 0,0 2.858,11.904 0,18.094 0,0 -43.804,4.762 -49.043,3.81 0,0 -11.428,3.809 -48.093,4.285 0,0 -11.905,2.858 -10.952,-14.761 l -0.476,-11.904 c 0,0 0,-5.715 -7.142,-10.476 0,0 -17.618,-0.952 -16.665,-19.522 0,0 -1.43,-13.808 4.284,-33.33 0,0 5.239,-13.334 -5.714,-15.716 0,0 -11.427,-2.381 -21.903,-3.809 C 13.332,28.569 5.237,26.188 0,0"
             style="fill:#ff0000;fill-opacity:1;fill-rule:nonzero;stroke:none"
             id="path34" />
        </g>
        <g
           id="g36"
           transform="translate(745.9902,428.6162)">
          <path
             d="m 0,0 c 0,0 7.62,6.189 14.286,13.331 0,0 4.044,2.278 -1.073,8.044 0,0 -4.642,10.051 -1.309,32.906 0,0 2.382,6.191 6.666,3.333 0,0 2.947,-0.133 3.809,4.763 0,0 2.857,9.522 0,18.094 L -6.194,83.27 c 0,0 1.432,-20.893 10.003,-26.607 0,0 1.429,-16.666 0.478,-29.522 0,0 1.429,-6.666 -6.667,-21.427 z"
             style="fill:#ffffff;fill-opacity:1;fill-rule:nonzero;stroke:none"
             id="path38" />
        </g>
        <g
           id="g40"
           transform="translate(369.1104,537.3018)">
          <path
             d="m 0,0 c 0,0 3.214,1.07 0,8.927 0,0 -3.929,7.143 0,11.785 0,0 5.713,4.643 9.642,5.357 0,0 9.325,10 -5.694,14.642 0,0 -16.091,1.429 -16.448,-16.428 0,0 1.786,-17.855 12.5,-24.283"
             style="fill:#000000;fill-opacity:1;fill-rule:nonzero;stroke:none"
             id="path42" />
        </g>
        <g
           id="g44"
           transform="translate(341.9683,519.0879)">
          <path
             d="m 0,0 c 0,0 0.357,-11.07 16.785,-22.856 l 10.359,-8.213 c 0,0 6.073,-1.785 0,-12.499 0,0 -3.217,-8.929 -5.716,-11.073 0,0 -1.072,-3.57 -6.786,2.5 0,0 -29.284,40.356 -14.642,52.141"
             style="fill:#000000;fill-opacity:1;fill-rule:nonzero;stroke:none"
             id="path46" />
        </g>
        <g
           id="g48"
           transform="translate(633.6182,299.0986)">
          <path
             d="M 0,0 C 0,0 10.476,6.19 11.428,9.523 L -39.521,71.9 c 0,0 -7.144,0 -11.429,-9.999 z"
             style="fill:#ffffff;fill-opacity:1;fill-rule:nonzero;stroke:none"
             id="path50" />
        </g>
        <g
           id="g52"
           transform="translate(582.668,361)">
          <path
             d="M 0,0 C 0,0 4.305,9.532 11.429,9.999 L -2.275,29.883 c 0,0 -11.609,-1.69 -12.01,-7.98 0,0 -7.493,4.558 14.285,-21.903"
             style="fill:#e88c35;fill-opacity:1;fill-rule:nonzero;stroke:none"
             id="path54" />
        </g>
        <g
           id="g56"
           transform="translate(252.709,48.21)">
          <path
             d="m 0,0 h -58.286 v 17.194 h 9.618 v 124.73 L -71.399,0 h -25.646 l -21.274,144.548 V 17.194 h 10.199 V 0 h -37.302 v 17.194 h 9.909 V 181.56 h -9.909 v 17.484 h 59.401 l 13.392,-96.161 14.22,96.161 H 0 V 181.56 H -9.618 V 17.194 H 0 Z"
             style="fill:#ffffff;fill-opacity:1;fill-rule:nonzero;stroke:none"
             id="path58" />
        </g>
        <g
           id="g60"
           transform="translate(305.1646,83.1826)">
          <path
             d="m 0,0 v 31.764 h -3.205 c -6.024,0 -10.008,-1.702 -11.948,-5.099 -1.946,-3.401 -2.915,-10.639 -2.915,-21.711 0,-15.547 3.301,-23.314 9.909,-23.314 C -2.723,-18.36 0,-12.239 0,0 m 51.292,-25.937 c -7.386,-7.969 -15.546,-11.948 -24.48,-11.948 -4.858,0 -8.744,0.779 -11.657,2.331 -2.915,1.553 -6.512,4.757 -10.783,9.617 -3.306,-4.471 -6.557,-7.577 -9.762,-9.325 -3.206,-1.75 -7.533,-2.623 -12.968,-2.623 -10.493,0 -18.798,3.738 -24.918,11.217 -6.12,7.48 -9.18,17.73 -9.18,30.748 0,28.168 12.822,42.256 38.469,42.256 H 0 v 32.932 c 0,6.797 -0.974,11.556 -2.914,14.279 -1.944,2.719 -5.345,4.079 -10.199,4.079 -3.306,0 -6.316,-1.266 -9.034,-3.788 3.496,-2.913 5.924,-5.637 7.285,-8.158 1.357,-2.529 2.04,-5.348 2.04,-8.453 0,-5.247 -1.749,-9.717 -5.246,-13.406 -3.497,-3.693 -7.773,-5.538 -12.823,-5.538 -5.245,0 -9.763,2.086 -13.551,6.267 -3.788,4.176 -5.683,9.276 -5.683,15.3 0,9.908 4.03,17.822 12.095,23.751 8.06,5.923 18.796,8.887 32.202,8.887 27.198,0 40.799,-15.348 40.799,-46.043 v -78.102 c 0,-3.694 1.066,-5.536 3.206,-5.536 2.136,0 4.663,2.038 7.577,6.118 z"
             style="fill:#ffffff;fill-opacity:1;fill-rule:nonzero;stroke:none"
             id="path62" />
        </g>
        <g
           id="g64"
           transform="translate(446.2378,170.0264)">
          <path
             d="m 0,0 c 0,-7.576 -1.652,-13.602 -4.954,-18.069 -3.306,-4.471 -7.773,-6.702 -13.405,-6.702 -4.859,0 -8.793,1.603 -11.803,4.808 -3.014,3.208 -4.518,7.623 -4.518,13.26 0,5.05 1.358,10.391 4.08,16.029 -4.858,-4.472 -8.013,-8.794 -9.47,-12.969 -1.457,-4.18 -2.186,-10.637 -2.186,-19.379 v -83.056 h 10.2 v -15.738 h -55.08 v 15.738 h 9.035 V 6.411 h -9.035 v 15.737 h 43.705 l 1.175,-8.742 c 6.753,7.964 13.797,11.948 21.129,11.948 6.365,0 11.479,-2.332 15.34,-6.994 C -1.931,13.697 0,7.576 0,0"
             style="fill:#ffffff;fill-opacity:1;fill-rule:nonzero;stroke:none"
             id="path66" />
        </g>
        <g
           id="g68"
           transform="translate(500.3047,48.21)">
          <path
             d="m 0,0 h -53.914 v 15.738 h 9.035 v 167.57 h -10.784 v 15.736 H -9.035 V 15.738 H 0 Z"
             style="fill:#ffffff;fill-opacity:1;fill-rule:nonzero;stroke:none"
             id="path70" />
        </g>
        <g
           id="g72"
           transform="translate(567.3828,98.0459)">
          <path
             d="m 0,0 v 55.661 c 0,15.155 -3.306,22.731 -9.909,22.731 -3.306,0 -5.536,-1.654 -6.702,-4.954 -1.165,-3.305 -1.748,-9.717 -1.748,-19.234 V -2.333 c 0,-12.823 0.532,-21.128 1.602,-24.917 1.066,-3.789 3.352,-5.683 6.848,-5.683 3.886,0 6.509,2.332 7.869,6.995 C -0.683,-21.275 0,-12.634 0,0 m 37.595,23.605 c 0,-50.904 -11.949,-76.353 -35.845,-76.353 -8.744,0 -16.131,4.175 -22.149,12.53 l -1.748,-9.618 h -41.091 v 15.738 h 9.033 v 167.57 h -9.033 v 15.736 h 44.879 V 89.757 c 4.27,3.106 7.722,5.197 10.346,6.266 2.622,1.066 5.486,1.602 8.596,1.602 11.462,0 20.496,-6.556 27.102,-19.671 6.603,-13.113 9.91,-31.232 9.91,-54.349"
             style="fill:#ffffff;fill-opacity:1;fill-rule:nonzero;stroke:none"
             id="path74" />
        </g>
        <g
           id="g76"
           transform="translate(670.2705,82.6006)">
          <path
             d="m 0,0 v 75.187 c 0,9.325 -0.778,15.59 -2.331,18.796 -1.557,3.205 -4.373,4.808 -8.452,4.808 -6.995,0 -10.49,-6.899 -10.49,-20.69 V 0 c 0,-9.327 0.773,-15.594 2.331,-18.798 1.552,-3.208 4.271,-4.809 8.159,-4.809 4.079,0 6.895,1.648 8.452,4.955 C -0.778,-15.351 0,-9.135 0,0 m 37.886,37.884 c 0,-50.126 -16.225,-75.187 -48.669,-75.187 -15.932,0 -28.027,6.362 -36.281,19.087 -8.261,12.724 -12.387,31.425 -12.387,56.1 0,24.478 4.126,43.081 12.387,55.806 8.254,12.725 20.349,19.089 36.281,19.089 32.444,0 48.669,-24.966 48.669,-74.895"
             style="fill:#ffffff;fill-opacity:1;fill-rule:nonzero;stroke:none"
             id="path78" />
        </g>
        <g
           id="g80"
           transform="translate(797.8574,170.0264)">
          <path
             d="m 0,0 c 0,-7.576 -1.653,-13.602 -4.954,-18.069 -3.306,-4.471 -7.773,-6.702 -13.405,-6.702 -4.858,0 -8.793,1.603 -11.803,4.808 -3.015,3.208 -4.518,7.623 -4.518,13.26 0,5.05 1.357,10.391 4.081,16.029 -4.859,-4.472 -8.014,-8.794 -9.472,-12.969 -1.456,-4.18 -2.185,-10.637 -2.185,-19.379 v -83.056 h 10.2 v -15.738 h -55.079 v 15.738 h 9.034 V 6.411 h -9.034 v 15.737 h 43.702 l 1.177,-8.742 c 6.753,7.964 13.798,11.948 21.128,11.948 6.365,0 11.479,-2.332 15.34,-6.994 C -1.93,13.697 0,7.576 0,0"
             style="fill:#ffffff;fill-opacity:1;fill-rule:nonzero;stroke:none"
             id="path82" />
        </g>
        <g
           id="g84"
           transform="translate(857.3096,82.6006)">
          <path
             d="m 0,0 v 75.187 c 0,9.325 -0.779,15.59 -2.332,18.796 -1.558,3.205 -4.372,4.808 -8.451,4.808 -6.994,0 -10.492,-6.899 -10.492,-20.69 V 0 c 0,-9.327 0.775,-15.594 2.332,-18.798 1.552,-3.208 4.271,-4.809 8.16,-4.809 4.079,0 6.893,1.648 8.451,4.955 C -0.779,-15.351 0,-9.135 0,0 m 37.885,37.884 c 0,-50.126 -16.224,-75.187 -48.668,-75.187 -15.934,0 -28.028,6.362 -36.282,19.087 -8.261,12.724 -12.387,31.425 -12.387,56.1 0,24.478 4.126,43.081 12.387,55.806 8.254,12.725 20.348,19.089 36.282,19.089 32.444,0 48.668,-24.966 48.668,-74.895"
             style="fill:#ffffff;fill-opacity:1;fill-rule:nonzero;stroke:none"
             id="path86" />
        </g>
      </g>
    </g>
  </g>
</svg>
